solid OpenSCAD_Model
  facet normal 0 0 1
    outer loop
      vertex -0.762 10.3505 3.2512
      vertex -2.3495 10.3505 3.2512
      vertex -0.762 -0.762 3.2512
    endloop
  endfacet
  facet normal -0 0 1
    outer loop
      vertex -0.762 -0.762 3.2512
      vertex 10.3505 -2.3495 3.2512
      vertex 10.3505 -0.762 3.2512
    endloop
  endfacet
  facet normal 0 0 1
    outer loop
      vertex -0.762 -0.762 3.2512
      vertex -2.3495 -2.3495 3.2512
      vertex 10.3505 -2.3495 3.2512
    endloop
  endfacet
  facet normal 0 0 1
    outer loop
      vertex -2.3495 -2.3495 3.2512
      vertex -0.762 -0.762 3.2512
      vertex -2.3495 10.3505 3.2512
    endloop
  endfacet
  facet normal 1 -0 0
    outer loop
      vertex -0.762 -0.762 3.2512
      vertex -0.762 10.3505 -3.175
      vertex -0.762 10.3505 3.2512
    endloop
  endfacet
  facet normal 1 0 0
    outer loop
      vertex -0.762 10.3505 -3.175
      vertex -0.762 -0.762 3.2512
      vertex -0.762 -0.762 -3.175
    endloop
  endfacet
  facet normal 0 1 -0
    outer loop
      vertex -0.762 10.3505 -3.175
      vertex -2.3495 10.3505 3.2512
      vertex -0.762 10.3505 3.2512
    endloop
  endfacet
  facet normal 0 1 0
    outer loop
      vertex -2.3495 10.3505 3.2512
      vertex -0.762 10.3505 -3.175
      vertex -2.3495 10.3505 -3.175
    endloop
  endfacet
  facet normal 1 -0 0
    outer loop
      vertex 10.3505 -2.3495 3.2512
      vertex 10.3505 -0.762 -3.175
      vertex 10.3505 -0.762 3.2512
    endloop
  endfacet
  facet normal 1 0 0
    outer loop
      vertex 10.3505 -0.762 -3.175
      vertex 10.3505 -2.3495 3.2512
      vertex 10.3505 -2.3495 -3.175
    endloop
  endfacet
  facet normal 0 1 -0
    outer loop
      vertex 10.3505 -0.762 -3.175
      vertex -0.762 -0.762 3.2512
      vertex 10.3505 -0.762 3.2512
    endloop
  endfacet
  facet normal 0 1 0
    outer loop
      vertex -0.762 -0.762 3.2512
      vertex 10.3505 -0.762 -3.175
      vertex -0.762 -0.762 -3.175
    endloop
  endfacet
  facet normal 0 0 1
    outer loop
      vertex 49.3395 103.949 3.2512
      vertex 47.752 102.362 3.2512
      vertex 49.3395 91.2495 3.2512
    endloop
  endfacet
  facet normal -0 0 1
    outer loop
      vertex 36.6395 103.949 3.2512
      vertex 47.752 102.362 3.2512
      vertex 49.3395 103.949 3.2512
    endloop
  endfacet
  facet normal 0 0 1
    outer loop
      vertex 47.752 102.362 3.2512
      vertex 36.6395 103.949 3.2512
      vertex 36.6395 102.362 3.2512
    endloop
  endfacet
  facet normal 0 0 1
    outer loop
      vertex 49.3395 91.2495 3.2512
      vertex 47.752 102.362 3.2512
      vertex 47.752 91.2495 3.2512
    endloop
  endfacet
  facet normal -1 0 0
    outer loop
      vertex 47.752 91.2495 -3.175
      vertex 47.752 102.362 3.2512
      vertex 47.752 102.362 -3.175
    endloop
  endfacet
  facet normal -1 -0 0
    outer loop
      vertex 47.752 102.362 3.2512
      vertex 47.752 91.2495 -3.175
      vertex 47.752 91.2495 3.2512
    endloop
  endfacet
  facet normal 0 -1 0
    outer loop
      vertex 47.752 91.2495 -3.175
      vertex 49.3395 91.2495 3.2512
      vertex 47.752 91.2495 3.2512
    endloop
  endfacet
  facet normal 0 -1 -0
    outer loop
      vertex 49.3395 91.2495 3.2512
      vertex 47.752 91.2495 -3.175
      vertex 49.3395 91.2495 -3.175
    endloop
  endfacet
  facet normal -1 0 0
    outer loop
      vertex 36.6395 102.362 -3.175
      vertex 36.6395 103.949 3.2512
      vertex 36.6395 103.949 -3.175
    endloop
  endfacet
  facet normal -1 -0 0
    outer loop
      vertex 36.6395 103.949 3.2512
      vertex 36.6395 102.362 -3.175
      vertex 36.6395 102.362 3.2512
    endloop
  endfacet
  facet normal 0 -1 0
    outer loop
      vertex 36.6395 102.362 -3.175
      vertex 47.752 102.362 3.2512
      vertex 36.6395 102.362 3.2512
    endloop
  endfacet
  facet normal 0 -1 -0
    outer loop
      vertex 47.752 102.362 3.2512
      vertex 36.6395 102.362 -3.175
      vertex 47.752 102.362 -3.175
    endloop
  endfacet
  facet normal 0 0 -1
    outer loop
      vertex 49.3395 -7.4295 -5.715
      vertex 54.4195 -2.3495 -5.715
      vertex 54.0328 -4.29353 -5.715
    endloop
  endfacet
  facet normal 0 0 -1
    outer loop
      vertex 54.4195 -2.3495 -5.715
      vertex -7.4295 -2.3495 -5.715
      vertex 54.4195 103.949 -5.715
    endloop
  endfacet
  facet normal 0 0 -1
    outer loop
      vertex 49.3395 -7.4295 -5.715
      vertex 54.0328 -4.29353 -5.715
      vertex 52.9316 -5.9416 -5.715
    endloop
  endfacet
  facet normal -0 0 -1
    outer loop
      vertex 54.4195 -2.3495 -5.715
      vertex 49.3395 -7.4295 -5.715
      vertex -7.4295 -2.3495 -5.715
    endloop
  endfacet
  facet normal 0 0 -1
    outer loop
      vertex 49.3395 -7.4295 -5.715
      vertex 52.9316 -5.9416 -5.715
      vertex 51.2835 -7.04281 -5.715
    endloop
  endfacet
  facet normal 0 0 -1
    outer loop
      vertex -7.4295 103.949 -5.715
      vertex 54.4195 103.949 -5.715
      vertex -7.4295 -2.3495 -5.715
    endloop
  endfacet
  facet normal 0 0 -1
    outer loop
      vertex 54.0328 105.894 -5.715
      vertex 49.3395 109.029 -5.715
      vertex 52.9316 107.542 -5.715
    endloop
  endfacet
  facet normal 0 0 -1
    outer loop
      vertex 52.9316 107.542 -5.715
      vertex 49.3395 109.029 -5.715
      vertex 51.2835 108.643 -5.715
    endloop
  endfacet
  facet normal 0 0 -1
    outer loop
      vertex -7.4295 -2.3495 -5.715
      vertex 49.3395 -7.4295 -5.715
      vertex -2.3495 -7.4295 -5.715
    endloop
  endfacet
  facet normal 0 -0 -1
    outer loop
      vertex 49.3395 109.029 -5.715
      vertex 54.4195 103.949 -5.715
      vertex -7.4295 103.949 -5.715
    endloop
  endfacet
  facet normal 0 0 -1
    outer loop
      vertex -7.4295 -2.3495 -5.715
      vertex -2.3495 -7.4295 -5.715
      vertex -4.29353 -7.04281 -5.715
    endloop
  endfacet
  facet normal 0 0 -1
    outer loop
      vertex 54.4195 103.949 -5.715
      vertex 49.3395 109.029 -5.715
      vertex 54.0328 105.894 -5.715
    endloop
  endfacet
  facet normal 0 0 -1
    outer loop
      vertex -7.4295 -2.3495 -5.715
      vertex -4.29353 -7.04281 -5.715
      vertex -5.9416 -5.9416 -5.715
    endloop
  endfacet
  facet normal -0 0 -1
    outer loop
      vertex 49.3395 109.029 -5.715
      vertex -7.4295 103.949 -5.715
      vertex -2.3495 109.029 -5.715
    endloop
  endfacet
  facet normal 0 0 -1
    outer loop
      vertex -7.4295 -2.3495 -5.715
      vertex -5.9416 -5.9416 -5.715
      vertex -7.04281 -4.29353 -5.715
    endloop
  endfacet
  facet normal 0 0 -1
    outer loop
      vertex -2.3495 109.029 -5.715
      vertex -7.4295 103.949 -5.715
      vertex -4.29353 108.643 -5.715
    endloop
  endfacet
  facet normal 0 0 -1
    outer loop
      vertex -4.29353 108.643 -5.715
      vertex -7.4295 103.949 -5.715
      vertex -5.9416 107.542 -5.715
    endloop
  endfacet
  facet normal 0 0 -1
    outer loop
      vertex -5.9416 107.542 -5.715
      vertex -7.4295 103.949 -5.715
      vertex -7.04281 105.894 -5.715
    endloop
  endfacet
  facet normal 0 0 1
    outer loop
      vertex 51.8795 103.949 19.685
      vertex 54.4195 103.949 19.685
      vertex 54.0328 105.894 19.685
    endloop
  endfacet
  facet normal 0 0 1
    outer loop
      vertex 54.4195 103.949 19.685
      vertex 51.8795 103.949 19.685
      vertex 54.4195 -2.3495 19.685
    endloop
  endfacet
  facet normal 0 0 1
    outer loop
      vertex 51.1355 105.746 19.685
      vertex 54.0328 105.894 19.685
      vertex 52.9316 107.542 19.685
    endloop
  endfacet
  facet normal 0 0 1
    outer loop
      vertex 51.8795 -2.3495 19.685
      vertex 54.4195 -2.3495 19.685
      vertex 51.8795 103.949 19.685
    endloop
  endfacet
  facet normal 0 0 1
    outer loop
      vertex 54.4195 -2.3495 19.685
      vertex 51.8795 -2.3495 19.685
      vertex 54.0328 -4.29353 19.685
    endloop
  endfacet
  facet normal 0 0 1
    outer loop
      vertex 51.1355 105.746 19.685
      vertex 52.9316 107.542 19.685
      vertex 51.2835 108.643 19.685
    endloop
  endfacet
  facet normal 0 0 1
    outer loop
      vertex 54.0328 105.894 19.685
      vertex 51.1355 105.746 19.685
      vertex 51.8795 103.949 19.685
    endloop
  endfacet
  facet normal 0 0 1
    outer loop
      vertex 49.3395 106.489 19.685
      vertex 51.2835 108.643 19.685
      vertex 49.3395 109.029 19.685
    endloop
  endfacet
  facet normal 0 0 1
    outer loop
      vertex 51.2835 108.643 19.685
      vertex 49.3395 106.489 19.685
      vertex 51.1355 105.746 19.685
    endloop
  endfacet
  facet normal -0 0 1
    outer loop
      vertex -2.3495 109.029 19.685
      vertex 49.3395 106.489 19.685
      vertex 49.3395 109.029 19.685
    endloop
  endfacet
  facet normal 0 0 1
    outer loop
      vertex -2.3495 109.029 19.685
      vertex -2.3495 106.489 19.685
      vertex 49.3395 106.489 19.685
    endloop
  endfacet
  facet normal -0 0 1
    outer loop
      vertex -4.29353 108.643 19.685
      vertex -2.3495 106.489 19.685
      vertex -2.3495 109.029 19.685
    endloop
  endfacet
  facet normal 0 0 1
    outer loop
      vertex -2.3495 106.489 19.685
      vertex -4.29353 108.643 19.685
      vertex -4.14555 105.746 19.685
    endloop
  endfacet
  facet normal -0 0 1
    outer loop
      vertex -5.9416 107.542 19.685
      vertex -4.14555 105.746 19.685
      vertex -4.29353 108.643 19.685
    endloop
  endfacet
  facet normal 0 0 1
    outer loop
      vertex -4.14555 105.746 19.685
      vertex -7.04281 105.894 19.685
      vertex -4.88949 103.949 19.685
    endloop
  endfacet
  facet normal -0 0 1
    outer loop
      vertex -7.04281 105.894 19.685
      vertex -4.14555 105.746 19.685
      vertex -5.9416 107.542 19.685
    endloop
  endfacet
  facet normal -0 0 1
    outer loop
      vertex 51.1355 -4.14555 19.685
      vertex 54.0328 -4.29353 19.685
      vertex 51.8795 -2.3495 19.685
    endloop
  endfacet
  facet normal 0 0 1
    outer loop
      vertex 54.0328 -4.29353 19.685
      vertex 51.1355 -4.14555 19.685
      vertex 52.9316 -5.9416 19.685
    endloop
  endfacet
  facet normal 0 0 1
    outer loop
      vertex 52.9316 -5.9416 19.685
      vertex 51.1355 -4.14555 19.685
      vertex 51.2835 -7.04281 19.685
    endloop
  endfacet
  facet normal -0 0 1
    outer loop
      vertex 49.3395 -4.88949 19.685
      vertex 51.2835 -7.04281 19.685
      vertex 51.1355 -4.14555 19.685
    endloop
  endfacet
  facet normal 0 0 1
    outer loop
      vertex 49.3395 -4.88949 19.685
      vertex 49.3395 -7.4295 19.685
      vertex 51.2835 -7.04281 19.685
    endloop
  endfacet
  facet normal -0 0 1
    outer loop
      vertex -2.3495 -4.88949 19.685
      vertex 49.3395 -7.4295 19.685
      vertex 49.3395 -4.88949 19.685
    endloop
  endfacet
  facet normal 0 0 1
    outer loop
      vertex -2.3495 -4.88949 19.685
      vertex -2.3495 -7.4295 19.685
      vertex 49.3395 -7.4295 19.685
    endloop
  endfacet
  facet normal 0 0 1
    outer loop
      vertex -4.29353 -7.04281 19.685
      vertex -2.3495 -4.88949 19.685
      vertex -4.14555 -4.14555 19.685
    endloop
  endfacet
  facet normal 0 0 1
    outer loop
      vertex -2.3495 -4.88949 19.685
      vertex -4.29353 -7.04281 19.685
      vertex -2.3495 -7.4295 19.685
    endloop
  endfacet
  facet normal 0 0 1
    outer loop
      vertex -7.04281 -4.29353 19.685
      vertex -4.14555 -4.14555 19.685
      vertex -4.88949 -2.3495 19.685
    endloop
  endfacet
  facet normal 0 0 1
    outer loop
      vertex -4.14555 -4.14555 19.685
      vertex -5.9416 -5.9416 19.685
      vertex -4.29353 -7.04281 19.685
    endloop
  endfacet
  facet normal 0 0 1
    outer loop
      vertex -4.88949 103.949 19.685
      vertex -7.4295 103.949 19.685
      vertex -4.88949 -2.3495 19.685
    endloop
  endfacet
  facet normal 0 0 1
    outer loop
      vertex -4.88949 103.949 19.685
      vertex -7.04281 105.894 19.685
      vertex -7.4295 103.949 19.685
    endloop
  endfacet
  facet normal 0 0 1
    outer loop
      vertex -7.4295 -2.3495 19.685
      vertex -4.88949 -2.3495 19.685
      vertex -7.4295 103.949 19.685
    endloop
  endfacet
  facet normal 0 -0 1
    outer loop
      vertex -7.04281 -4.29353 19.685
      vertex -4.88949 -2.3495 19.685
      vertex -7.4295 -2.3495 19.685
    endloop
  endfacet
  facet normal 0 0 1
    outer loop
      vertex -4.14555 -4.14555 19.685
      vertex -7.04281 -4.29353 19.685
      vertex -5.9416 -5.9416 19.685
    endloop
  endfacet
  facet normal 0.555572 -0.831468 0
    outer loop
      vertex 51.2835 -7.04281 -5.715
      vertex 52.9316 -5.9416 19.685
      vertex 51.2835 -7.04281 19.685
    endloop
  endfacet
  facet normal 0.555572 -0.831468 0
    outer loop
      vertex 52.9316 -5.9416 19.685
      vertex 51.2835 -7.04281 -5.715
      vertex 52.9316 -5.9416 -5.715
    endloop
  endfacet
  facet normal 0.831468 -0.555572 0
    outer loop
      vertex 52.9316 -5.9416 19.685
      vertex 54.0328 -4.29353 -5.715
      vertex 54.0328 -4.29353 19.685
    endloop
  endfacet
  facet normal 0.831468 -0.555572 0
    outer loop
      vertex 54.0328 -4.29353 -5.715
      vertex 52.9316 -5.9416 19.685
      vertex 52.9316 -5.9416 -5.715
    endloop
  endfacet
  facet normal 0.980786 -0.195089 0
    outer loop
      vertex 54.0328 -4.29353 19.685
      vertex 54.4195 -2.3495 -5.715
      vertex 54.4195 -2.3495 19.685
    endloop
  endfacet
  facet normal 0.980786 -0.195089 0
    outer loop
      vertex 54.4195 -2.3495 -5.715
      vertex 54.0328 -4.29353 19.685
      vertex 54.0328 -4.29353 -5.715
    endloop
  endfacet
  facet normal 1 -0 0
    outer loop
      vertex 54.4195 -2.3495 19.685
      vertex 54.4195 103.949 -5.715
      vertex 54.4195 103.949 19.685
    endloop
  endfacet
  facet normal 1 0 0
    outer loop
      vertex 54.4195 103.949 -5.715
      vertex 54.4195 -2.3495 19.685
      vertex 54.4195 -2.3495 -5.715
    endloop
  endfacet
  facet normal 0.980786 0.195089 0
    outer loop
      vertex 54.4195 103.949 19.685
      vertex 54.0328 105.894 -5.715
      vertex 54.0328 105.894 19.685
    endloop
  endfacet
  facet normal 0.980786 0.195089 0
    outer loop
      vertex 54.0328 105.894 -5.715
      vertex 54.4195 103.949 19.685
      vertex 54.4195 103.949 -5.715
    endloop
  endfacet
  facet normal 0.831468 0.555572 0
    outer loop
      vertex 54.0328 105.894 19.685
      vertex 52.9316 107.542 -5.715
      vertex 52.9316 107.542 19.685
    endloop
  endfacet
  facet normal 0.831468 0.555572 0
    outer loop
      vertex 52.9316 107.542 -5.715
      vertex 54.0328 105.894 19.685
      vertex 54.0328 105.894 -5.715
    endloop
  endfacet
  facet normal 0.555572 0.831468 -0
    outer loop
      vertex 52.9316 107.542 -5.715
      vertex 51.2835 108.643 19.685
      vertex 52.9316 107.542 19.685
    endloop
  endfacet
  facet normal 0.555572 0.831468 0
    outer loop
      vertex 51.2835 108.643 19.685
      vertex 52.9316 107.542 -5.715
      vertex 51.2835 108.643 -5.715
    endloop
  endfacet
  facet normal 0.195089 0.980786 -0
    outer loop
      vertex 51.2835 108.643 -5.715
      vertex 49.3395 109.029 19.685
      vertex 51.2835 108.643 19.685
    endloop
  endfacet
  facet normal 0.195089 0.980786 0
    outer loop
      vertex 49.3395 109.029 19.685
      vertex 51.2835 108.643 -5.715
      vertex 49.3395 109.029 -5.715
    endloop
  endfacet
  facet normal 0 1 -0
    outer loop
      vertex 49.3395 109.029 -5.715
      vertex -2.3495 109.029 19.685
      vertex 49.3395 109.029 19.685
    endloop
  endfacet
  facet normal 0 1 0
    outer loop
      vertex -2.3495 109.029 19.685
      vertex 49.3395 109.029 -5.715
      vertex -2.3495 109.029 -5.715
    endloop
  endfacet
  facet normal -0.195089 0.980786 0
    outer loop
      vertex -2.3495 109.029 -5.715
      vertex -4.29353 108.643 19.685
      vertex -2.3495 109.029 19.685
    endloop
  endfacet
  facet normal -0.195089 0.980786 0
    outer loop
      vertex -4.29353 108.643 19.685
      vertex -2.3495 109.029 -5.715
      vertex -4.29353 108.643 -5.715
    endloop
  endfacet
  facet normal -0.555572 0.831468 0
    outer loop
      vertex -4.29353 108.643 -5.715
      vertex -5.9416 107.542 19.685
      vertex -4.29353 108.643 19.685
    endloop
  endfacet
  facet normal -0.555572 0.831468 0
    outer loop
      vertex -5.9416 107.542 19.685
      vertex -4.29353 108.643 -5.715
      vertex -5.9416 107.542 -5.715
    endloop
  endfacet
  facet normal -0.831468 0.555572 0
    outer loop
      vertex -7.04281 105.894 -5.715
      vertex -5.9416 107.542 19.685
      vertex -5.9416 107.542 -5.715
    endloop
  endfacet
  facet normal -0.831468 0.555572 0
    outer loop
      vertex -5.9416 107.542 19.685
      vertex -7.04281 105.894 -5.715
      vertex -7.04281 105.894 19.685
    endloop
  endfacet
  facet normal -0.980786 0.195089 0
    outer loop
      vertex -7.4295 103.949 -5.715
      vertex -7.04281 105.894 19.685
      vertex -7.04281 105.894 -5.715
    endloop
  endfacet
  facet normal -0.980786 0.195089 0
    outer loop
      vertex -7.04281 105.894 19.685
      vertex -7.4295 103.949 -5.715
      vertex -7.4295 103.949 19.685
    endloop
  endfacet
  facet normal -1 0 0
    outer loop
      vertex -7.4295 -2.3495 -5.715
      vertex -7.4295 103.949 19.685
      vertex -7.4295 103.949 -5.715
    endloop
  endfacet
  facet normal -1 -0 0
    outer loop
      vertex -7.4295 103.949 19.685
      vertex -7.4295 -2.3495 -5.715
      vertex -7.4295 -2.3495 19.685
    endloop
  endfacet
  facet normal -0.980786 -0.195089 0
    outer loop
      vertex -7.04281 -4.29353 -5.715
      vertex -7.4295 -2.3495 19.685
      vertex -7.4295 -2.3495 -5.715
    endloop
  endfacet
  facet normal -0.980786 -0.195089 0
    outer loop
      vertex -7.4295 -2.3495 19.685
      vertex -7.04281 -4.29353 -5.715
      vertex -7.04281 -4.29353 19.685
    endloop
  endfacet
  facet normal -0.831468 -0.555572 0
    outer loop
      vertex -5.9416 -5.9416 -5.715
      vertex -7.04281 -4.29353 19.685
      vertex -7.04281 -4.29353 -5.715
    endloop
  endfacet
  facet normal -0.831468 -0.555572 0
    outer loop
      vertex -7.04281 -4.29353 19.685
      vertex -5.9416 -5.9416 -5.715
      vertex -5.9416 -5.9416 19.685
    endloop
  endfacet
  facet normal -0.555572 -0.831468 0
    outer loop
      vertex -5.9416 -5.9416 -5.715
      vertex -4.29353 -7.04281 19.685
      vertex -5.9416 -5.9416 19.685
    endloop
  endfacet
  facet normal -0.555572 -0.831468 -0
    outer loop
      vertex -4.29353 -7.04281 19.685
      vertex -5.9416 -5.9416 -5.715
      vertex -4.29353 -7.04281 -5.715
    endloop
  endfacet
  facet normal -0.195089 -0.980786 0
    outer loop
      vertex -4.29353 -7.04281 -5.715
      vertex -2.3495 -7.4295 19.685
      vertex -4.29353 -7.04281 19.685
    endloop
  endfacet
  facet normal -0.195089 -0.980786 -0
    outer loop
      vertex -2.3495 -7.4295 19.685
      vertex -4.29353 -7.04281 -5.715
      vertex -2.3495 -7.4295 -5.715
    endloop
  endfacet
  facet normal 0 -1 0
    outer loop
      vertex -2.3495 -7.4295 19.685
      vertex 24.13 -7.4295 17.5006
      vertex 49.3395 -7.4295 19.685
    endloop
  endfacet
  facet normal 0 -1 0
    outer loop
      vertex -2.3495 -7.4295 19.685
      vertex 24.13 -7.4295 7.9756
      vertex 24.13 -7.4295 17.5006
    endloop
  endfacet
  facet normal 0 -1 0
    outer loop
      vertex 49.3395 -7.4295 -5.715
      vertex 24.13 -7.4295 7.9756
      vertex -2.3495 -7.4295 -5.715
    endloop
  endfacet
  facet normal 0 -1 0
    outer loop
      vertex -2.3495 -7.4295 -5.715
      vertex 24.13 -7.4295 7.9756
      vertex -2.3495 -7.4295 19.685
    endloop
  endfacet
  facet normal 0 -1 0
    outer loop
      vertex 36.83 -7.4295 17.5006
      vertex 49.3395 -7.4295 19.685
      vertex 24.13 -7.4295 17.5006
    endloop
  endfacet
  facet normal 0 -1 0
    outer loop
      vertex 36.83 -7.4295 7.9756
      vertex 49.3395 -7.4295 19.685
      vertex 36.83 -7.4295 17.5006
    endloop
  endfacet
  facet normal 0 -1 0
    outer loop
      vertex 36.83 -7.4295 7.9756
      vertex 49.3395 -7.4295 -5.715
      vertex 49.3395 -7.4295 19.685
    endloop
  endfacet
  facet normal 0 -1 0
    outer loop
      vertex 24.13 -7.4295 7.9756
      vertex 49.3395 -7.4295 -5.715
      vertex 36.83 -7.4295 7.9756
    endloop
  endfacet
  facet normal 0.195089 -0.980786 0
    outer loop
      vertex 49.3395 -7.4295 -5.715
      vertex 51.2835 -7.04281 19.685
      vertex 49.3395 -7.4295 19.685
    endloop
  endfacet
  facet normal 0.195089 -0.980786 0
    outer loop
      vertex 51.2835 -7.04281 19.685
      vertex 49.3395 -7.4295 -5.715
      vertex 51.2835 -7.04281 -5.715
    endloop
  endfacet
  facet normal 1 0 0
    outer loop
      vertex -2.3495 103.949 24.765
      vertex -2.3495 10.3505 3.2512
      vertex -2.3495 103.949 -3.175
    endloop
  endfacet
  facet normal 1 -0 0
    outer loop
      vertex -2.3495 -2.3495 24.765
      vertex -2.3495 10.3505 3.2512
      vertex -2.3495 103.949 24.765
    endloop
  endfacet
  facet normal 1 0 0
    outer loop
      vertex -2.3495 10.3505 3.2512
      vertex -2.3495 -2.3495 24.765
      vertex -2.3495 -2.3495 3.2512
    endloop
  endfacet
  facet normal 1 0 0
    outer loop
      vertex -2.3495 103.949 -3.175
      vertex -2.3495 10.3505 3.2512
      vertex -2.3495 10.3505 -3.175
    endloop
  endfacet
  facet normal 0 -1 0
    outer loop
      vertex -2.3495 103.949 24.765
      vertex 36.6395 103.949 3.2512
      vertex 49.3395 103.949 24.765
    endloop
  endfacet
  facet normal 0 -1 0
    outer loop
      vertex -2.3495 103.949 -3.175
      vertex 36.6395 103.949 3.2512
      vertex -2.3495 103.949 24.765
    endloop
  endfacet
  facet normal 0 -1 -0
    outer loop
      vertex 36.6395 103.949 3.2512
      vertex -2.3495 103.949 -3.175
      vertex 36.6395 103.949 -3.175
    endloop
  endfacet
  facet normal 0 -1 -0
    outer loop
      vertex 49.3395 103.949 24.765
      vertex 36.6395 103.949 3.2512
      vertex 49.3395 103.949 3.2512
    endloop
  endfacet
  facet normal -1 0 0
    outer loop
      vertex 49.3395 91.2495 -3.175
      vertex 49.3395 -2.3495 -3.175
      vertex 49.3395 91.2495 3.2512
    endloop
  endfacet
  facet normal -1 0 0
    outer loop
      vertex 49.3395 91.2495 3.2512
      vertex 49.3395 103.949 24.765
      vertex 49.3395 103.949 3.2512
    endloop
  endfacet
  facet normal -1 0 0
    outer loop
      vertex 49.3395 -2.3495 24.765
      vertex 49.3395 91.2495 3.2512
      vertex 49.3395 -2.3495 -3.175
    endloop
  endfacet
  facet normal -1 0 0
    outer loop
      vertex 49.3395 91.2495 3.2512
      vertex 49.3395 -2.3495 24.765
      vertex 49.3395 103.949 24.765
    endloop
  endfacet
  facet normal 0 1 0
    outer loop
      vertex 24.13 -2.3495 17.5006
      vertex 49.3395 -2.3495 24.765
      vertex 36.83 -2.3495 17.5006
    endloop
  endfacet
  facet normal 0 1 0
    outer loop
      vertex 49.3395 -2.3495 24.765
      vertex 36.83 -2.3495 7.9756
      vertex 36.83 -2.3495 17.5006
    endloop
  endfacet
  facet normal 0 1 0
    outer loop
      vertex 49.3395 -2.3495 -3.175
      vertex 24.13 -2.3495 7.9756
      vertex 36.83 -2.3495 7.9756
    endloop
  endfacet
  facet normal 0 1 -0
    outer loop
      vertex 49.3395 -2.3495 -3.175
      vertex 36.83 -2.3495 7.9756
      vertex 49.3395 -2.3495 24.765
    endloop
  endfacet
  facet normal 0 1 0
    outer loop
      vertex 24.13 -2.3495 7.9756
      vertex 49.3395 -2.3495 -3.175
      vertex 10.3505 -2.3495 -3.175
    endloop
  endfacet
  facet normal 0 1 0
    outer loop
      vertex 24.13 -2.3495 7.9756
      vertex 10.3505 -2.3495 -3.175
      vertex 10.3505 -2.3495 3.2512
    endloop
  endfacet
  facet normal 0 1 0
    outer loop
      vertex 49.3395 -2.3495 24.765
      vertex 24.13 -2.3495 17.5006
      vertex -2.3495 -2.3495 24.765
    endloop
  endfacet
  facet normal 0 1 0
    outer loop
      vertex 10.3505 -2.3495 3.2512
      vertex 24.13 -2.3495 17.5006
      vertex 24.13 -2.3495 7.9756
    endloop
  endfacet
  facet normal 0 1 0
    outer loop
      vertex 24.13 -2.3495 17.5006
      vertex 10.3505 -2.3495 3.2512
      vertex -2.3495 -2.3495 24.765
    endloop
  endfacet
  facet normal 0 1 0
    outer loop
      vertex -2.3495 -2.3495 24.765
      vertex 10.3505 -2.3495 3.2512
      vertex -2.3495 -2.3495 3.2512
    endloop
  endfacet
  facet normal 1 -0 0
    outer loop
      vertex 24.13 -7.4295 17.5006
      vertex 24.13 -2.3495 7.9756
      vertex 24.13 -2.3495 17.5006
    endloop
  endfacet
  facet normal 1 0 0
    outer loop
      vertex 24.13 -2.3495 7.9756
      vertex 24.13 -7.4295 17.5006
      vertex 24.13 -7.4295 7.9756
    endloop
  endfacet
  facet normal 0 0 -1
    outer loop
      vertex 24.13 -7.4295 17.5006
      vertex 36.83 -2.3495 17.5006
      vertex 36.83 -7.4295 17.5006
    endloop
  endfacet
  facet normal -0 0 -1
    outer loop
      vertex 36.83 -2.3495 17.5006
      vertex 24.13 -7.4295 17.5006
      vertex 24.13 -2.3495 17.5006
    endloop
  endfacet
  facet normal -1 0 0
    outer loop
      vertex 36.83 -7.4295 7.9756
      vertex 36.83 -2.3495 17.5006
      vertex 36.83 -2.3495 7.9756
    endloop
  endfacet
  facet normal -1 -0 0
    outer loop
      vertex 36.83 -2.3495 17.5006
      vertex 36.83 -7.4295 7.9756
      vertex 36.83 -7.4295 17.5006
    endloop
  endfacet
  facet normal -0 0 1
    outer loop
      vertex 24.13 -2.3495 7.9756
      vertex 36.83 -7.4295 7.9756
      vertex 36.83 -2.3495 7.9756
    endloop
  endfacet
  facet normal 0 0 1
    outer loop
      vertex 36.83 -7.4295 7.9756
      vertex 24.13 -2.3495 7.9756
      vertex 24.13 -7.4295 7.9756
    endloop
  endfacet
  facet normal -0 0 1
    outer loop
      vertex 0 0 -3.175
      vertex 10.3505 -0.762 -3.175
      vertex 46.99 0 -3.175
    endloop
  endfacet
  facet normal 0 0 1
    outer loop
      vertex 0 0 -3.175
      vertex -0.762 -0.762 -3.175
      vertex 10.3505 -0.762 -3.175
    endloop
  endfacet
  facet normal 0 0 1
    outer loop
      vertex -0.762 -0.762 -3.175
      vertex 0 0 -3.175
      vertex -0.762 10.3505 -3.175
    endloop
  endfacet
  facet normal 0 0 1
    outer loop
      vertex 36.6395 103.949 -3.175
      vertex 0 101.6 -3.175
      vertex 36.6395 102.362 -3.175
    endloop
  endfacet
  facet normal 0 0 1
    outer loop
      vertex 0 101.6 -3.175
      vertex -0.762 10.3505 -3.175
      vertex 0 0 -3.175
    endloop
  endfacet
  facet normal -0 0 1
    outer loop
      vertex -2.3495 103.949 -3.175
      vertex 0 101.6 -3.175
      vertex 36.6395 103.949 -3.175
    endloop
  endfacet
  facet normal 0 0 1
    outer loop
      vertex -2.3495 10.3505 -3.175
      vertex 0 101.6 -3.175
      vertex -2.3495 103.949 -3.175
    endloop
  endfacet
  facet normal 0 0 1
    outer loop
      vertex 0 101.6 -3.175
      vertex -2.3495 10.3505 -3.175
      vertex -0.762 10.3505 -3.175
    endloop
  endfacet
  facet normal 0 0 1
    outer loop
      vertex 47.752 102.362 -3.175
      vertex 46.99 101.6 -3.175
      vertex 47.752 91.2495 -3.175
    endloop
  endfacet
  facet normal -0 0 1
    outer loop
      vertex 36.6395 102.362 -3.175
      vertex 46.99 101.6 -3.175
      vertex 47.752 102.362 -3.175
    endloop
  endfacet
  facet normal 0 0 1
    outer loop
      vertex 46.99 101.6 -3.175
      vertex 36.6395 102.362 -3.175
      vertex 0 101.6 -3.175
    endloop
  endfacet
  facet normal 0 0 1
    outer loop
      vertex 46.99 0 -3.175
      vertex 49.3395 91.2495 -3.175
      vertex 47.752 91.2495 -3.175
    endloop
  endfacet
  facet normal 0 0 1
    outer loop
      vertex 46.99 0 -3.175
      vertex 47.752 91.2495 -3.175
      vertex 46.99 101.6 -3.175
    endloop
  endfacet
  facet normal 0 0 1
    outer loop
      vertex 49.3395 91.2495 -3.175
      vertex 46.99 0 -3.175
      vertex 49.3395 -2.3495 -3.175
    endloop
  endfacet
  facet normal 0 0 1
    outer loop
      vertex 10.3505 -2.3495 -3.175
      vertex 46.99 0 -3.175
      vertex 10.3505 -0.762 -3.175
    endloop
  endfacet
  facet normal 0 0 1
    outer loop
      vertex 46.99 0 -3.175
      vertex 10.3505 -2.3495 -3.175
      vertex 49.3395 -2.3495 -3.175
    endloop
  endfacet
  facet normal -0 0 1
    outer loop
      vertex 3.17499 98.425 -3.175
      vertex 43.815 3.17499 -3.175
      vertex 43.815 98.425 -3.175
    endloop
  endfacet
  facet normal 0 0 1
    outer loop
      vertex 43.815 3.17499 -3.175
      vertex 3.17499 98.425 -3.175
      vertex 3.17499 3.17499 -3.175
    endloop
  endfacet
  facet normal 0 0 1
    outer loop
      vertex 46.99 101.6 0
      vertex 43.815 98.425 0
      vertex 46.99 0 0
    endloop
  endfacet
  facet normal 0 0 1
    outer loop
      vertex 46.99 101.6 0
      vertex 3.17499 98.425 0
      vertex 43.815 98.425 0
    endloop
  endfacet
  facet normal 0 0 1
    outer loop
      vertex 3.17499 98.425 0
      vertex 0 101.6 0
      vertex 3.17499 3.17499 0
    endloop
  endfacet
  facet normal -0 0 1
    outer loop
      vertex 0 101.6 0
      vertex 3.17499 98.425 0
      vertex 46.99 101.6 0
    endloop
  endfacet
  facet normal -0 0 1
    outer loop
      vertex 43.815 3.17499 0
      vertex 46.99 0 0
      vertex 43.815 98.425 0
    endloop
  endfacet
  facet normal -0 0 1
    outer loop
      vertex 3.17499 3.17499 0
      vertex 46.99 0 0
      vertex 43.815 3.17499 0
    endloop
  endfacet
  facet normal 0 0 1
    outer loop
      vertex 3.17499 3.17499 0
      vertex 0 0 0
      vertex 46.99 0 0
    endloop
  endfacet
  facet normal 0 0 1
    outer loop
      vertex 0 0 0
      vertex 3.17499 3.17499 0
      vertex 0 101.6 0
    endloop
  endfacet
  facet normal 0 1 -0
    outer loop
      vertex 46.99 101.6 -3.175
      vertex 0 101.6 0
      vertex 46.99 101.6 0
    endloop
  endfacet
  facet normal 0 1 0
    outer loop
      vertex 0 101.6 0
      vertex 46.99 101.6 -3.175
      vertex 0 101.6 -3.175
    endloop
  endfacet
  facet normal -1 0 0
    outer loop
      vertex 0 0 -3.175
      vertex 0 101.6 0
      vertex 0 101.6 -3.175
    endloop
  endfacet
  facet normal -1 -0 0
    outer loop
      vertex 0 101.6 0
      vertex 0 0 -3.175
      vertex 0 0 0
    endloop
  endfacet
  facet normal 0 -1 0
    outer loop
      vertex 0 0 -3.175
      vertex 46.99 0 0
      vertex 0 0 0
    endloop
  endfacet
  facet normal 0 -1 -0
    outer loop
      vertex 46.99 0 0
      vertex 0 0 -3.175
      vertex 46.99 0 -3.175
    endloop
  endfacet
  facet normal 1 -0 0
    outer loop
      vertex 46.99 0 0
      vertex 46.99 101.6 -3.175
      vertex 46.99 101.6 0
    endloop
  endfacet
  facet normal 1 0 0
    outer loop
      vertex 46.99 101.6 -3.175
      vertex 46.99 0 0
      vertex 46.99 0 -3.175
    endloop
  endfacet
  facet normal 1 -0 0
    outer loop
      vertex 3.17499 3.17499 0
      vertex 3.17499 98.425 -3.175
      vertex 3.17499 98.425 0
    endloop
  endfacet
  facet normal 1 0 0
    outer loop
      vertex 3.17499 98.425 -3.175
      vertex 3.17499 3.17499 0
      vertex 3.17499 3.17499 -3.175
    endloop
  endfacet
  facet normal 0 -1 0
    outer loop
      vertex 3.17499 98.425 -3.175
      vertex 43.815 98.425 0
      vertex 3.17499 98.425 0
    endloop
  endfacet
  facet normal 0 -1 -0
    outer loop
      vertex 43.815 98.425 0
      vertex 3.17499 98.425 -3.175
      vertex 43.815 98.425 -3.175
    endloop
  endfacet
  facet normal -1 0 0
    outer loop
      vertex 43.815 3.17499 -3.175
      vertex 43.815 98.425 0
      vertex 43.815 98.425 -3.175
    endloop
  endfacet
  facet normal -1 -0 0
    outer loop
      vertex 43.815 98.425 0
      vertex 43.815 3.17499 -3.175
      vertex 43.815 3.17499 0
    endloop
  endfacet
  facet normal 0 1 -0
    outer loop
      vertex 43.815 3.17499 -3.175
      vertex 3.17499 3.17499 0
      vertex 43.815 3.17499 0
    endloop
  endfacet
  facet normal 0 1 0
    outer loop
      vertex 3.17499 3.17499 0
      vertex 43.815 3.17499 -3.175
      vertex 3.17499 3.17499 -3.175
    endloop
  endfacet
  facet normal -0 0 1
    outer loop
      vertex -2.3495 106.489 24.765
      vertex 49.3395 103.949 24.765
      vertex 49.3395 106.489 24.765
    endloop
  endfacet
  facet normal 0 0 1
    outer loop
      vertex -2.3495 106.489 24.765
      vertex -2.3495 103.949 24.765
      vertex 49.3395 103.949 24.765
    endloop
  endfacet
  facet normal -0 0 1
    outer loop
      vertex -4.14555 105.746 24.765
      vertex -2.3495 103.949 24.765
      vertex -2.3495 106.489 24.765
    endloop
  endfacet
  facet normal 0 0 1
    outer loop
      vertex -2.3495 103.949 24.765
      vertex -4.88949 103.949 24.765
      vertex -2.3495 -2.3495 24.765
    endloop
  endfacet
  facet normal 0 0 1
    outer loop
      vertex -2.3495 103.949 24.765
      vertex -4.14555 105.746 24.765
      vertex -4.88949 103.949 24.765
    endloop
  endfacet
  facet normal 0 0 1
    outer loop
      vertex -4.88949 -2.3495 24.765
      vertex -2.3495 -2.3495 24.765
      vertex -4.88949 103.949 24.765
    endloop
  endfacet
  facet normal 0 -0 1
    outer loop
      vertex -4.14555 -4.14555 24.765
      vertex -2.3495 -2.3495 24.765
      vertex -4.88949 -2.3495 24.765
    endloop
  endfacet
  facet normal 0 0 1
    outer loop
      vertex -2.3495 -2.3495 24.765
      vertex -4.14555 -4.14555 24.765
      vertex -2.3495 -4.88949 24.765
    endloop
  endfacet
  facet normal 0 0 1
    outer loop
      vertex 49.3395 103.949 24.765
      vertex 51.8795 103.949 24.765
      vertex 51.1355 105.746 24.765
    endloop
  endfacet
  facet normal 0 0 1
    outer loop
      vertex 51.8795 103.949 24.765
      vertex 49.3395 103.949 24.765
      vertex 51.8795 -2.3495 24.765
    endloop
  endfacet
  facet normal 0 0 1
    outer loop
      vertex 49.3395 103.949 24.765
      vertex 51.1355 105.746 24.765
      vertex 49.3395 106.489 24.765
    endloop
  endfacet
  facet normal 0 0 1
    outer loop
      vertex 49.3395 -2.3495 24.765
      vertex 51.8795 -2.3495 24.765
      vertex 49.3395 103.949 24.765
    endloop
  endfacet
  facet normal 0 0 1
    outer loop
      vertex 51.8795 -2.3495 24.765
      vertex 49.3395 -2.3495 24.765
      vertex 51.1355 -4.14555 24.765
    endloop
  endfacet
  facet normal 0 0 1
    outer loop
      vertex 49.3395 -2.3495 24.765
      vertex 49.3395 -4.88949 24.765
      vertex 51.1355 -4.14555 24.765
    endloop
  endfacet
  facet normal -0 0 1
    outer loop
      vertex -2.3495 -2.3495 24.765
      vertex 49.3395 -4.88949 24.765
      vertex 49.3395 -2.3495 24.765
    endloop
  endfacet
  facet normal 0 0 1
    outer loop
      vertex 49.3395 -4.88949 24.765
      vertex -2.3495 -2.3495 24.765
      vertex -2.3495 -4.88949 24.765
    endloop
  endfacet
  facet normal 0.923881 -0.382681 0
    outer loop
      vertex 51.1355 -4.14555 24.765
      vertex 51.8795 -2.3495 19.685
      vertex 51.8795 -2.3495 24.765
    endloop
  endfacet
  facet normal 0.923881 -0.382681 0
    outer loop
      vertex 51.8795 -2.3495 19.685
      vertex 51.1355 -4.14555 24.765
      vertex 51.1355 -4.14555 19.685
    endloop
  endfacet
  facet normal 1 -0 0
    outer loop
      vertex 51.8795 -2.3495 24.765
      vertex 51.8795 103.949 19.685
      vertex 51.8795 103.949 24.765
    endloop
  endfacet
  facet normal 1 0 0
    outer loop
      vertex 51.8795 103.949 19.685
      vertex 51.8795 -2.3495 24.765
      vertex 51.8795 -2.3495 19.685
    endloop
  endfacet
  facet normal 0.923881 0.382681 0
    outer loop
      vertex 51.8795 103.949 24.765
      vertex 51.1355 105.746 19.685
      vertex 51.1355 105.746 24.765
    endloop
  endfacet
  facet normal 0.923881 0.382681 0
    outer loop
      vertex 51.1355 105.746 19.685
      vertex 51.8795 103.949 24.765
      vertex 51.8795 103.949 19.685
    endloop
  endfacet
  facet normal 0.382681 0.923881 -0
    outer loop
      vertex 51.1355 105.746 19.685
      vertex 49.3395 106.489 24.765
      vertex 51.1355 105.746 24.765
    endloop
  endfacet
  facet normal 0.382681 0.923881 0
    outer loop
      vertex 49.3395 106.489 24.765
      vertex 51.1355 105.746 19.685
      vertex 49.3395 106.489 19.685
    endloop
  endfacet
  facet normal 0 1 -0
    outer loop
      vertex 49.3395 106.489 19.685
      vertex -2.3495 106.489 24.765
      vertex 49.3395 106.489 24.765
    endloop
  endfacet
  facet normal 0 1 0
    outer loop
      vertex -2.3495 106.489 24.765
      vertex 49.3395 106.489 19.685
      vertex -2.3495 106.489 19.685
    endloop
  endfacet
  facet normal -0.382681 0.923881 0
    outer loop
      vertex -2.3495 106.489 19.685
      vertex -4.14555 105.746 24.765
      vertex -2.3495 106.489 24.765
    endloop
  endfacet
  facet normal -0.382681 0.923881 0
    outer loop
      vertex -4.14555 105.746 24.765
      vertex -2.3495 106.489 19.685
      vertex -4.14555 105.746 19.685
    endloop
  endfacet
  facet normal -0.923881 0.382681 0
    outer loop
      vertex -4.88949 103.949 19.685
      vertex -4.14555 105.746 24.765
      vertex -4.14555 105.746 19.685
    endloop
  endfacet
  facet normal -0.923881 0.382681 0
    outer loop
      vertex -4.14555 105.746 24.765
      vertex -4.88949 103.949 19.685
      vertex -4.88949 103.949 24.765
    endloop
  endfacet
  facet normal -1 0 0
    outer loop
      vertex -4.88949 -2.3495 19.685
      vertex -4.88949 103.949 24.765
      vertex -4.88949 103.949 19.685
    endloop
  endfacet
  facet normal -1 -0 0
    outer loop
      vertex -4.88949 103.949 24.765
      vertex -4.88949 -2.3495 19.685
      vertex -4.88949 -2.3495 24.765
    endloop
  endfacet
  facet normal -0.923881 -0.382681 0
    outer loop
      vertex -4.14555 -4.14555 19.685
      vertex -4.88949 -2.3495 24.765
      vertex -4.88949 -2.3495 19.685
    endloop
  endfacet
  facet normal -0.923881 -0.382681 0
    outer loop
      vertex -4.88949 -2.3495 24.765
      vertex -4.14555 -4.14555 19.685
      vertex -4.14555 -4.14555 24.765
    endloop
  endfacet
  facet normal -0.382681 -0.923881 0
    outer loop
      vertex -4.14555 -4.14555 19.685
      vertex -2.3495 -4.88949 24.765
      vertex -4.14555 -4.14555 24.765
    endloop
  endfacet
  facet normal -0.382681 -0.923881 -0
    outer loop
      vertex -2.3495 -4.88949 24.765
      vertex -4.14555 -4.14555 19.685
      vertex -2.3495 -4.88949 19.685
    endloop
  endfacet
  facet normal 0 -1 0
    outer loop
      vertex -2.3495 -4.88949 19.685
      vertex 49.3395 -4.88949 24.765
      vertex -2.3495 -4.88949 24.765
    endloop
  endfacet
  facet normal 0 -1 -0
    outer loop
      vertex 49.3395 -4.88949 24.765
      vertex -2.3495 -4.88949 19.685
      vertex 49.3395 -4.88949 19.685
    endloop
  endfacet
  facet normal 0.382681 -0.923881 0
    outer loop
      vertex 49.3395 -4.88949 19.685
      vertex 51.1355 -4.14555 24.765
      vertex 49.3395 -4.88949 24.765
    endloop
  endfacet
  facet normal 0.382681 -0.923881 0
    outer loop
      vertex 51.1355 -4.14555 24.765
      vertex 49.3395 -4.88949 19.685
      vertex 51.1355 -4.14555 19.685
    endloop
  endfacet
endsolid OpenSCAD_Model
